PathFileType	4	(X/Y/Z)	C:\Users\WrightLab\Desktop\Jo\P4V122.trc
DataRate	CameraRate	NumFrames	NumMarkers	Units	OrigDataRate	OrigDataStartFrame	OrigNumFrames
100.00	100.00	       11	19	mm	100.00	317	       633
Frame#	Time	Headset_Front			Headset_Back			Headset_Left			Headset_Right			Left_Shoulder			Right_Shoulder			Sternum			C7			Left Elbow			Right Elbow			Left Wrist			Right Wrist			Left ASIS			Right ASIS			S2			Left Knee			Right Knee			Left Ankle			Right Ankle			
		X1	Y1	Z1	X2	Y2	Z2	X3	Y3	Z3	X4	Y4	Z4	X5	Y5	Z5	X6	Y6	Z6	X7	Y7	Z7	X8	Y8	Z8	X9	Y9	Z9	X10	Y10	Z10	X11	Y11	Z11	X12	Y12	Z12	X13	Y13	Z13	X14	Y14	Z14	X15	Y15	Z15	X16	Y16	Z16	X17	Y17	Z17	X18	Y18	Z18	X19	Y19	Z19	

317	3.160	-103.00433	1648.98511	606.65961							-240.48529	1673.70740	549.46460	-78.60697	1491.30444	308.05771	-313.09558	1496.21460	502.94064	-110.53704	1439.16028	488.08936	-230.00742	1521.44080	364.11636	-4.45878	1148.07666	169.92986	-415.70642	1155.74341	625.00525	83.86408	851.22900	206.27695	-305.06296	932.53979	802.20526	1.91382	1014.14587	404.83267	-255.89699	996.43280	619.76691				121.58905	569.48566	492.84061	-365.38605	539.46399	515.98511	136.03372	62.97416	517.93542	-568.81470	157.45515	226.89319	
318	3.170	-95.10674	1650.90210	615.02435							-232.84401	1675.22705	557.06805	-69.77994	1493.13550	315.54794	-303.58365	1497.49292	510.53619	-101.97449	1441.29419	495.82925	-220.94235	1522.93726	371.91293	4.40958	1150.00195	178.21252	-405.96890	1156.55457	630.98328	91.99538	852.59277	214.66112	-297.93970	931.08002	806.38458	11.81236	1016.31781	412.41510	-245.06929	998.11511	627.72729	-215.72749	1020.03693	355.16406	131.28053	571.47620	500.50781	-350.50186	538.79132	530.78003	137.26465	63.49227	518.65955	-558.81763	167.28384	232.06795	
319	3.180	-86.92542	1652.71997	623.08752							-224.48064	1676.30603	564.66534	-60.75083	1495.08167	323.02686	-294.16806	1499.31458	518.53931	-92.32138	1442.76074	503.64221	-211.81007	1524.35876	379.59479	13.79103	1151.80334	186.30550	-395.72589	1157.77185	636.88782	100.99725	854.34259	224.28979	-290.05356	930.10266	810.49298	22.07355	1019.04779	419.91208	-234.53745	998.32886	635.89984				140.37569	573.37598	507.12491	-336.75113	538.04761	546.04163	137.86006	63.99929	519.45654	-547.90265	177.97969	237.90369	
320	3.190	-79.21233	1654.79993	631.47162							-216.56779	1678.08057	572.25598	-51.20547	1497.00220	331.89340	-285.00549	1501.38867	526.51843	-83.35985	1445.17627	511.51642	-202.62459	1525.95435	387.30322	22.93717	1153.61353	194.56961	-385.57132	1159.22009	642.20935	110.03629	856.35425	233.91029	-282.76764	929.10248	814.57788	31.49306	1021.67957	427.00909	-224.36150	998.40338	641.64471	-196.71454	1021.94196	370.64722	149.01535	575.32007	512.72650	-321.10068	535.17792	561.56366	138.32214	64.72687	519.97998	-535.32709	189.20157	244.66862	
321	3.200	-70.96462	1656.41772	639.54333							-209.88766	1679.78210	580.16388	-42.48556	1499.51904	339.52945	-275.74747	1503.18701	534.03632	-73.71605	1446.56018	519.67169	-193.50238	1527.79944	395.17026	32.35860	1155.88513	202.86758	-376.03851	1160.45618	647.90350	119.49772	858.38049	244.24265	-275.10736	927.92267	818.87170	41.22789	1023.73169	434.92468	-216.26109	999.00629	648.40363	-187.86372	1022.82922	379.11697	156.35532	574.85602	518.12653	-305.23193	531.90717	577.25781	138.50029	65.24348	520.68805	-521.46344	201.30690	252.21643	
322	3.210	-64.12920	1658.50586	648.01953							-200.31873	1680.26929	587.37970	-32.56009	1501.16541	347.15247	-266.65927	1505.26648	541.86560	-65.46430	1449.13916	527.85358	-184.22095	1529.81274	402.72607	42.55074	1157.75977	211.63518	-366.85785	1161.98950	654.02472	129.48293	860.72150	255.11877	-268.60962	927.12091	823.39124	49.56900	1025.71887	441.69507	-208.17271	1000.10193	657.31726	-179.39540	1024.24170	385.15350	162.87526	573.70667	522.65210	-288.64633	529.12628	593.53210	138.25258	65.93786	521.01239	-506.48117	213.50507	261.08167	
323	3.220	-56.33149	1660.50098	656.44525							-193.28961	1681.65332	595.40967	-23.40968	1503.38086	356.07687	-257.91016	1507.21729	549.30298	-55.70457	1450.53772	535.29077	-174.92992	1531.89294	410.26498	52.39257	1159.33252	220.70924	-358.37073	1163.38220	659.63568	139.86978	862.91162	266.14371	-261.53238	926.87164	827.44476	58.12060	1028.02100	449.17685	-199.13330	1000.07794	662.10889	-171.07997	1025.23914	393.27161	167.63159	572.85388	525.94183	-271.85791	526.00281	609.46851	138.12163	66.17216	521.75714	-489.65567	225.50676	270.16302	
324	3.230	-48.57161	1662.53137	664.65686							-185.80353	1683.81946	603.15289	-13.46305	1505.67603	364.01651	-249.38387	1509.68982	556.74237	-48.08084	1452.78088	543.92310	-165.71648	1534.42554	418.08896	62.63882	1161.32507	229.29529	-349.11121	1164.72827	665.06482	149.73117	865.63452	278.28192	-254.97258	925.43597	831.20197	67.21770	1031.23181	455.33368	-191.77841	1000.42285	668.12360	-163.28804	1026.94556	399.94946	171.48059	572.36810	529.57568	-255.37059	524.10571	625.10541	138.07390	66.44941	521.98297	-471.37216	237.33919	281.06763	
325	3.240	-41.74978	1665.30652	673.40930							-177.41081	1685.99719	610.61743	-4.19835	1508.10986	373.22977	-241.56602	1511.67957	563.89368	-39.40579	1454.30664	551.98523	-156.58350	1537.17456	425.76309	73.70814	1163.54810	238.71600	-340.94791	1166.18787	670.67694	159.70352	868.50671	290.98367	-248.26727	925.14270	834.60687	74.54787	1033.45630	461.85632	-183.67542	1001.10162	674.53363	-155.95619	1029.29089	406.44333	175.01024	572.96191	532.38898	-239.22679	523.63623	640.63977	137.85028	66.46129	522.40027	-451.79410	248.23619	292.33380	
326	3.250	-34.44464	1667.30615	681.77234							-170.68352	1688.14587	618.56805	5.19329	1510.34106	382.08890	-233.85715	1514.01794	571.06970	-33.19629	1455.44324	558.82220	-147.66530	1540.13428	433.54852	84.85131	1166.25720	248.52582	-333.05319	1168.37183	676.90930	170.91878	871.92621	304.02252	-241.90953	925.47363	838.51385	81.59367	1035.31470	469.26068	-176.73674	1004.21204	683.54840				177.71890	572.53650	535.47552	-224.60368	523.84796	655.69208	138.00798	66.75089	523.03638	-431.66754	257.21320	304.51324	
327	3.260	-27.25505	1669.38879	690.49573							-163.43225	1690.16492	626.39026	13.99701	1512.62683	391.42554	-226.56372	1516.53650	577.81403	-24.56457	1458.72156	568.92621	-138.80042	1542.77637	441.07639	96.11964	1168.70776	258.03162	-325.31100	1170.07068	682.04834	181.53067	874.36230	317.33334	-235.73364	925.53802	842.57562	89.22471	1038.52075	475.79779	-170.46599	1006.44696	691.05865	-142.31506	1034.02100	419.31448	180.26016	572.28491	538.00952	-209.41792	525.37555	671.03870	137.53316	67.08601	523.21570	-413.64734	264.52615	315.40173	
